<mxfile host="app.diagrams.net" agent="Mozilla/5.0 (Windows NT 10.0; Win64; x64) AppleWebKit/537.36 (KHTML, like Gecko) Chrome/128.0.0.0 Safari/537.36" version="24.7.8">
  <diagram name="Page-1" id="aFKyIAiAJvQZKJ0UAI7U">
    <mxGraphModel dx="1050" dy="522" grid="1" gridSize="10" guides="1" tooltips="1" connect="1" arrows="1" fold="1" page="1" pageScale="1" pageWidth="827" pageHeight="1169" math="0" shadow="0">
      <root>
        <mxCell id="0" />
        <mxCell id="1" parent="0" />
        <mxCell id="h16L4f_dmH_8uCZaBLLS-2" value="" style="shape=image;verticalLabelPosition=bottom;labelBackgroundColor=default;verticalAlign=top;aspect=fixed;imageAspect=0;image=https://previews.123rf.com/images/stnazkul/stnazkul1904/stnazkul190400298/121620207-cctv-surveillance-camera-operating-on-traffic-road-and-people-cross-road-in-japan.jpg;" vertex="1" parent="1">
          <mxGeometry x="80" y="170" width="120" height="80" as="geometry" />
        </mxCell>
        <mxCell id="h16L4f_dmH_8uCZaBLLS-4" value="" style="shape=image;verticalLabelPosition=bottom;labelBackgroundColor=default;verticalAlign=top;aspect=fixed;imageAspect=0;image=https://previews.123rf.com/images/stnazkul/stnazkul1904/stnazkul190400298/121620207-cctv-surveillance-camera-operating-on-traffic-road-and-people-cross-road-in-japan.jpg;" vertex="1" parent="1">
          <mxGeometry x="70" y="180" width="120" height="80" as="geometry" />
        </mxCell>
        <mxCell id="h16L4f_dmH_8uCZaBLLS-5" value="" style="shape=image;verticalLabelPosition=bottom;labelBackgroundColor=default;verticalAlign=top;aspect=fixed;imageAspect=0;image=https://previews.123rf.com/images/stnazkul/stnazkul1904/stnazkul190400298/121620207-cctv-surveillance-camera-operating-on-traffic-road-and-people-cross-road-in-japan.jpg;" vertex="1" parent="1">
          <mxGeometry x="60" y="190" width="120" height="80" as="geometry" />
        </mxCell>
        <mxCell id="h16L4f_dmH_8uCZaBLLS-6" value="&lt;b style=&quot;font-size: 17px;&quot;&gt;&lt;font style=&quot;font-size: 17px;&quot;&gt;CCTV Footage&lt;/font&gt;&lt;/b&gt;" style="text;html=1;align=center;verticalAlign=middle;whiteSpace=wrap;rounded=0;fontFamily=Fredoka;fontSource=https%3A%2F%2Ffonts.googleapis.com%2Fcss%3Ffamily%3DFredoka;fontSize=17;" vertex="1" parent="1">
          <mxGeometry x="110" y="130" width="60" height="20" as="geometry" />
        </mxCell>
        <mxCell id="h16L4f_dmH_8uCZaBLLS-9" value="" style="shape=image;verticalLabelPosition=bottom;labelBackgroundColor=default;verticalAlign=top;aspect=fixed;imageAspect=0;image=data:image/png,iVBORw0KGgoAAAANSUhEUgAAAOEAAADhCAMAAAAJbSJIAAAAilBMVEX///8AAADv7++Wlpbz8/P5+fn29vb8/PxhYWGysrLm5ubg4OCAgIDp6enOzs5BQUGgoKDW1tampqbBwcHQ0NDZ2dlbW1utra25ubmKioqZmZk3NzdJSUmGhoYuLi4ODg52dnZra2tRUVEmJiZEREQXFxczMzNxcXEdHR16enpWVlZnZ2cLCwsnJyel5kEsAAATWElEQVR4nO1d53bqPLPGdDAYTO+hhNCS+7+9oxmNZDXbMjt7v99ZS88fgrFlTS+SnVotICAgICAgICAgICAgICAgICAgICAgICAgICAgICAgICAgICAgICAgICAgICAggKPV7vzXU/ibmK+3URRdL1+j0e68eN0e60Zjs9mMJ8vVdDpL5/O4P6y3/+tZvo/mIvLG92V7Pg2m/25y7cnzcL0fvkafjPcnZD0yPpkxzvfrLZ8xUpz66Pg43ha7r7sXoaP636aM0PDme/d12/SdY/TZGfeeYYStZn3Y78fxfDbtLSfj8WY9OJ66i+d5txttP2DQf0JiC4wn2i6eu8/t18/9o5TUm8uZHKLoUfHGMVPr7W9QUILOD5v0yjjWBubHaTJdMd5PJpvG/nF7dZ+fh28g8WpzfhJFr+r37lp3/htgd9l5GRpHZ3Vh6mhJkR3kTrJTJVo0o+hc4fT3kFTXFKZcA/OYmOqDifjjftjumMvqno6DdWM8XvZ602mSzmMIFs2WMdT7U/fEKYrIdfhznwnMlPp3dMXPvZfTgqB5gFjR+Ae+ZhTd8XPKbpuF6j3Gix6LF2kKcbqpUc+MLjGGYZRN8I+eJ4lcdcaSv38PZ9ITn4jx8TN6AufjKOoZw7TZz0P8q/XpR+ARSNv8Axmye4zxj5ffxJ41jH1WOsJ04E6qeyof5YtcaPcf2CHzEdFM0FqOB1Axi6LUGmfNSCSNK2PWXfCnw/z436cQsi0+s3ITOvcFMUN7ICYPobyjwlHW8pK1sN6/C+Y3aMKrEgJp/mBza5YHTHozzU2A6LryjFzMxPnDQWQ45XY/wQyjl/yu/9n7SfFLyE1TwvNmLgcCDm1bxbz6plFaExR05pNbq4GWrn82bEtwocXyr/qQpb+QADPM5/M0nSXJdLpiCRnj15Td8SZJLLDFhRjSOueyadJPTZbifuFfu7xhyHVy132X8kxOjnM/1kWiHO4P+bPVsE2RxNiWjwqZxSTbdW/GSqp6PE8ma7K4h/D5LPjc4DPOGYZPmVdaN+mQexc88DUYT+cxGzmdbl5coItMQwwsPclDjGtHcfNWGYGWkswGeEKDvl/J0LrOYbglozEsZRIxQ1nsekZk7G+ucPzUrLkwRvofg8F+zcrZBjYTNuPxeDJhSeKKZYmzFPPE/nwJpcUks8VpNQIRK5jinXObCe8An4lrmK4k8Cgv7tzwBg7nzGjHtsHS8QsMP/ZNM8Ek6uC4I+SWy9OfrIvilJX/mZWsuCoABpQO/DjGwRuwaKrUTHOkL5MTU9E0zr6mkCHtbDF+uEJyLsZYvDISP+GbQ4h6VG5NB1/yl4awE9BVdEYsUoxoVBMN+l0hEOS5JU41p4NRNrAgAJlnUtOrGEh30XcNKxlk/tWc2FWNWYnpi+5jzmHgzBfM9ca91tCmECvIm6p2oD+UACRmI+va4IbZ/IysQplZOVfRDgADRp0CxpyHCgwWPRYuYuLIELNNtJOTObE4G3nqdNBrZEEdJHu5X5kT3MN3S93RmMGNXrcEOMod6sql1NGDMw8sSBcZ6ZVXogljJNzLjHgabF6WjT3f5o3CWfyU34V8NCCnzsZB1L84N83LSjKNRCq4c6OugkUmQ4iFoEeGAT3lsOuCcbooxs2zi1i0aiLoZbjAGe1FV0NcJorPpjAB1aWeeMHdd0peR7uWCe/JPx6OM2Buxem0w7UZJ6ytEwhC9Bd3joLhFaKDUrEtxf2KuI7YkAjRRK68Y6OrojBxxXGcBkcX76yS0VBIsy1A6HDOHXpMWK3UpXcrIcUsOjXJYTPLKek909mYLc54RKtrJ4hstC8O7DjvXAHdrPsN5XPH5xaPPBv66qxKcGBmPD/ZZYMsSA+KCMQAdaLPG7dGvSyoS55xSHt3MfvZWAMaHBtDrfcNB9a8AS3l60yFuHqctJ4z06KPtOiabP4szcJeVIs8sBbvBGuFhcg82BHt/gBZPLq4T0hpErIWqTVhSmTaLdNBS6DHPRKLlqQN6gkfNNyJvmeJvo+f9kY2bG5p0+SyuCj6DR6RkuFchzPmFG2FmOBDS9rIeQjFzWaSq/t1yC4IQ80JjJVfCK2BepeCiZJ6GU2PFPwd1TQ5tVTKlXhJyrw3uUjuSlh/Nnp+61GLy1oe5kiUeamWGVdRXERpfBtdD6iIdm1NCjrqfLLohM/8U/OkZP83/i0L/ZOCmagT0CKro1znIpNzLq5pwQv2sjqUxPgteeckkWQGHzElpSobP/koc3OK7hKSoM5AE7VNIHfQwpnJ++QAp3c1x2lBurBU+KXhm8sO858T+Sl19ZBESNX6TQxat0dSoaiRlv/tV7O5XufxNQ4RJvO6CxLzWuYODTZyLtlJF1L4RIfZJ6NTRU1Voei4SDvKTb85RHLWmW2sOozdZb8SzQouQrnq6G57KAAr6UjnkAFUCsnu29fA4Rt+HEli6ux1K5TaUbrAwduJBX3vz54iwp4yzxJA1BxoxRwHRPx5NqKKeo1Wf4bEGjU7OKicznIkB6MMMJc8cSyVp/Npr9HlCe3HSg4sIlA5gZg8z01fQ9xBU7MVHRQPs9EbSUxdNiLmCr8pHMLTGsUCv+RzHM/Uo3R9fYnJwlMwnEoXR8/DBpx4EaxXsSbjsJw8RfyfvkOEYkaiJUNheWaOkQPsQGjyzubTP7GvIg/kjqnjNei0lrdmcqGjZtKH4YDb1cwUIclM5p9klX6Lg5uOfrFOocZKfqZfe3dQyzIUHQm5LMuagW50/mdLPuTYpdyTCiIUvkCLK1oyUv/RD/v156F6arl6m2g86OzNfBnzNIiUc/NXkUrJxItTWOrSESIeaMUesGw6Fo6lpZ1bVP+oAImIZXkdMRmalTYABzuUL2i3EWKQB9DxNM3r3VAWQPXZgUWceGC9quf67ogjQ3T1+Y/UC7gZl6DnXfKETLVSscsl8xUvIW4PSH+uHgSecY85UGV4quUv41gAnVupVWKGJkUMSwjIDvSpWuYqau6VdmbhwqcCuRCnHgT95FYNGpM14ppeEYjjzPXQuY+qQbHBzEjkZGrfylEZcpREfF/SEVHw5aIQlJPVBlMeurK12G6VdTIu/U3NhYgHVyvwCH5opMvsVtXqlf9MOtlNJRJOF+XOyu3KtwpmaKMo3CthK2oZWgvZTaHGCuAIuvEKm2LNibgoZJNocH/hqw4GwJhHSqWqYUsVnhl6eK5+VA+hp1jTRe9OxKQQ6GIqeuL66hd2LIAxn/P24MzI6KzYA4Wf7s1ArCuMIH5bfS2ISks9tuIUXjijc7tjxUhqRbuMuuQiLc81NlKBI4oaKfw2z/WfiHn5UnIXIqPn1jAToAinXAr71FWzo89Kl2uMc0GBV/ECCgSFagkMPSoeI3hm8ham3KByKATrRif5KB6F1q12v6ClahKxkcwd1t7utxbLEAM2fJbkXiCAOQW1N1ktPI26gAPuqy5/9Q7yOshJ5VEISRO6ycKlU4z2C+p3v+nyROKoUriWFCY1w3f7gzPnmkshmFWdPnOxFNrkodB5EBFfjUx7qT3gVf0egLBQR70q2Bs+paZg0RY9+B1TmWbNs7lgQSZ9KoUPbiff3OdU2tGkT+678LGHTyoF8yN5Zi5pzasD5oBMdr+Ug1BEsJyyy2n1rQh1fNUK8lKOObVB82t1kNyeFUvc7763iCarJ5WRFH0GB0y6PCtNA8Cb1LHarOJFv+e5kCPXpUuTuleOpm454A59k0Lk7CU6HoWuvQFgeq9k8/uQ1orz2p7grDbgbq48YX3LmTJ/MJyYFGK2cYi6NEOzFvcCXDjIWy8XWFOvyu2uMWvHfv+DVwhFy0x5AEezWZoUHviBzz53pv5PLWTABs29bGs4FIjw6V5fgVC1xEy1x7+Ut7htgBlekEI1YbjzA4caN4WS9R0nBlwJ7aa3jjH5IleFduBMAjUYkiH67sNVMIeA2jMpxDANK1202vVGukT8L92U+MFbbC4mwrRWxKRtzt6tUoCdr20KcTTIuMZ8jm9ERM6j8ic0xEKqwxI7XGhNIm1eeydejJGLNoXAVljpirl2+La1MsCsm8pCZj7u/G62iUHImolucExtj8q1ahvjuU0h8A0d4c+bGSEtlXk8PdwjS7TmDqnjRi54fXGZ+q7FCBy5qGwKYYJrYAC1ary7pIQXSaecQLRE+LBSsrWYA2JJcaViKdfnJm5TSE3vOig+OvyKsTbmU87dAKhiTBMwE5YGp5ACaos8fDUh3vgYORRu8OPM9aSaEFGEW+famo0OJTZmnahTCH9iN/VUZSJt8iE2hdTW76OZYgFUqaVY5yL0fNp4wB226WsMCpvEiCrBGfR676aQQgTtRk5qvuuiHNix/3Gs4rsRU0PNiLpEoTxNPBha9sRXhqfkm00htYR5n4vzzr+GEtv/vR8Y33JJGVHXkCGqG8ZG7zQZnBSrQQcuCqkljBnJmYTiradDmo73E6dLfkOjSjMphLybd9A9U6yUM3oxdFEINj2jTmOfJu3rqDEGvoprXx11Sg30mVsUwu+opy2vOhFoAAfZFA8Ka60EOCLL1w1FjI7XugHKu6dvviwDbV7XlzxtCiFnwwSg7tEbxuh5hc+5i0L4ea4+Zorn+/RJMASC2D3dDKIhI2ghhehkMANo5+zezYCRZYENGSeFIIhY7qT4olM8VrdQgq27+xGvXFDmqMcL05cC9mKHbdlT6OhBbrxKcmopSGIodqC+KCR6iJCvcH5WfbOI6MOUUljLXkBS5Pj4gx+QTIMDETJUe22YxzeprmFDfUD2X7ohkT9KhT3ynFXDXESOpRcnheDutjxVTXKNUT6Yx0WZEuc1zT7y2zJJtIETfWIfInd9ZCznYO1JLMOB+zJNj4DCvZ287yLZ3nJ3iI+8i3+KxKpTQi5TO+tERw7YNkCnIcvrWs/prOnJLthfVP25/TNfetEqKIg2A0d5Ajspab2/MzHbGt9reohuJAkE/5RaFL6UIz8YDDMjhGvMmCsfoIbMZ1GrjDO3Li3iAoUPVwEGQeUkXGx/8pLNzqf+IKTw5vTKEt2P4ST38GTXayVnnlHI3NAy25S6yx6CB933KpkMkJZqEqH60LHlCLj9rRTXnTidpXG2VW0IunCW3xd85Up3lKaeqb/KV5y15kmSpEpuNgX1fetFRJld6HrkeDMLoA6x4uzajAT0YUNCeRCBBKZ3sYwX/WjJRl66OQXV3XqVhCb63E01rTnEefk79oa3PeuFcq0V2vJCmeScfKARQZWLmkan2dmn72/Qd/vnohqo4Ws8BcmX53Keo2sPyEISSUwrnfDF3JEmXer1mN20s3yu0krkwYDT1ySV/Ksnax5MB65tej6gR4UN7y92E+RoY13G/MO5e3rJSHMzXnyw5Y8BVFiagwF4n/+wuN1OYuTv9dvvIGxR0mRkhdjzbkT5j4K3elYeuViZ74waUh+yQpMCPLJVZz/+5K2DtLvMSppWgsRdfhqfTm47yEE+DufH0vXaigYpgT+BeD6j8HQ7jw7368+u21hWqSMcOHAHbesRasUMLPyV+84NQKfgzWBXvjBhPulchIRPJsc63sCU9MguXShooZ8/v/eSqim5vyo9bdDHxKud7Yk7d5uuJhp/OUetia2ZtzTlzAev0khD60h/8RWDa9rD7nx9nMhM+hAH3nihbEy5hH+DLpJbXCqVuAVgavQBU89b/RHWMCBGVMOLRF9pfRB89/DXXosFvaKEKHDjRVF2pCSMFUbHOFTyNKGBMafwzfTFQeC4bA57pDGxn/YrxZNaV9WWXWgXT9n6tRcgQHDdK16/BlVtl71cyIbYp1tx/Z8ofKdIMgEufC3/KgDtpqnaHBF7rSuunMHdmm+ZvYEphHLusIq3kTzR5tteS8oqltSOqWaFnLRW9ff0WoCV+wOPcflZ8dexJ8Jgr2qEgmIMLbjqBllky1sv6rUIpN5VTrA6NxLFebajop2cLpzI4Vfe8IcR9CrSjXcBz5JStexomV0y0RHqh6pplFg0q749HCyno77j7C1c5Aqx+RSyLjpEO4EuQ0XftqBsIfcBsI/DaPFYN8Y9eAd9HPfrTeU1/P0/jRZz4aq0d9Z83JaxmZr1VwNeglZ13ldK3FWi7p+n22O96a2SuN4sTAIbf1pbjHko7mRR4tyYmi2C9mws/fylcqb/Qa53vHhsJqvZvF8lI+pXWzxz4MH3CTWE6Oa5ogPOP0yr9MHnG1megP4mvrew4I6xF+0aU7PwU0UXPTfJm92f3ptvkW/1l9Cv+9NoeMxh8HC1l6L7Gbwjugyfxf/uoDWM01ky7U02jfX++FqcR18/d/ki/z9OaKw3nzDRpZOubNAv3hZdBljGjDaSxmY/nvaW48bgtNgdSrY9m/26dxBp4Y1ZnUy9D4PVL723t41N4J/T/nguIQn+ncYW/59G97SezH7lf7dAojHAkZjVycWsZ+PPRafCvf522XVPj/V42Zsm8dB8uf7vAZPt7kA+cnS5OZuBf4ol9Bo/LtvzkYX2RH0Z6d+Hspw1WlsO9RfRav1n/zFoufuI7ovx7/Ul/xfx//i/EQUEBAQEBAQEBAQEBAQEBAQEBAQEBAQEBAQEBAQEBAQEBAQEBAQEBAQEBAQEBPyP4v8A5OIM6SpaJzwAAAAASUVORK5CYII=;" vertex="1" parent="1">
          <mxGeometry x="314" y="160" width="100" height="100" as="geometry" />
        </mxCell>
      </root>
    </mxGraphModel>
  </diagram>
</mxfile>
